<svg width="3" height="3" viewBox="0 0 3 3" fill="none" xmlns="http://www.w3.org/2000/svg">
<path d="M1.53137 2.924C1.30737 2.924 1.09737 2.87267 0.901374 2.77C0.705374 2.658 0.546707 2.504 0.425374 2.308C0.313374 2.112 0.257374 1.888 0.257374 1.636C0.257374 1.39333 0.313374 1.17867 0.425374 0.992C0.546707 0.796 0.705374 0.642 0.901374 0.53C1.09737 0.418 1.30737 0.362 1.53137 0.362C1.76471 0.362 1.97471 0.418 2.16137 0.53C2.35737 0.642 2.51137 0.796 2.62337 0.992C2.73537 1.17867 2.79137 1.39333 2.79137 1.636C2.79137 1.888 2.73537 2.112 2.62337 2.308C2.51137 2.504 2.35737 2.658 2.16137 2.77C1.97471 2.87267 1.76471 2.924 1.53137 2.924Z" fill="#112211"/>
</svg>
